PathFileType	4	(X/Y/Z)	/Users/itak/Documents/Research/Walk-IL/dataset/trc/00230_00009.trc
DataRate	CameraRate	NumFrames	NumMarkers	Units	OrigDataRate	OrigDataStartFrame	OrigNumFrames
100.000000	100.000000	4	53	mm	100.000000	399	798
Frame#	Time	RPSI			LPSI			L3			STRN			T10			C7			CLAV			RBAK			LBAK			LSHO			LUPA			LAEL			LAOL			LWTS			LWPS			LFRA			LIFD			LHPS			LHTS			RSHO			RUPA			RAEL			RAOL			RWTS			RWPS			RFRA			RIFD			RHTS			RHPS			RBHD			LFHD			RFHD			LBHD			LHIP			RHIP			RASI			LASI			LKNE			LTHI			LANK			LTIP			LTOE			LMT1			LMT5			LHEE			RKNE			RTHI			RANK			RTIP			RTOE			RMT1			RMT5			RHEE			
		X1	Y1	Z1	X2	Y2	Z2	X3	Y3	Z3	X4	Y4	Z4	X5	Y5	Z5	X6	Y6	Z6	X7	Y7	Z7	X8	Y8	Z8	X9	Y9	Z9	X10	Y10	Z10	X11	Y11	Z11	X12	Y12	Z12	X13	Y13	Z13	X14	Y14	Z14	X15	Y15	Z15	X16	Y16	Z16	X17	Y17	Z17	X18	Y18	Z18	X19	Y19	Z19	X20	Y20	Z20	X21	Y21	Z21	X22	Y22	Z22	X23	Y23	Z23	X24	Y24	Z24	X25	Y25	Z25	X26	Y26	Z26	X27	Y27	Z27	X28	Y28	Z28	X29	Y29	Z29	X30	Y30	Z30	X31	Y31	Z31	X32	Y32	Z32	X33	Y33	Z33	X34	Y34	Z34	X35	Y35	Z35	X36	Y36	Z36	X37	Y37	Z37	X38	Y38	Z38	X39	Y39	Z39	X40	Y40	Z40	X41	Y41	Z41	X42	Y42	Z42	X43	Y43	Z43	X44	Y44	Z44	X45	Y45	Z45	X46	Y46	Z46	X47	Y47	Z47	X48	Y48	Z48	X49	Y49	Z49	X50	Y50	Z50	X51	Y51	Z51	X52	Y52	Z52	X53	Y53	Z53	

400	3.99	678.338134765625	1022.680786132812	-388.269775390625	629.2020263671875	1028.930786132812	-278.5326232910156	648.4876708984375	1117.945190429688	-315.3838500976562	408.2996826171875	1292.044311523438	-416.5867004394531	649.0257568359375	1244.976806640625	-317.8233032226562	575.8193359375	1502.36474609375	-344.6625366210938	428.5342102050781	1410.223876953125	-409.6360168457031	680.8631591796875	1368.236938476562	-381.2118225097656	553.7217407226562	1466.714721679688	-233.212158203125	450.4987182617188	1463.889892578125	-221.2969818115234	435.2886352539062	1350.778442382812	-138.0557861328125	370.3324279785156	1150.32421875	-124.3909912109375	448.9658813476562	1113.330810546875	-128.5120697021484	254.9089813232422	979.402587890625	-271.498291015625	224.0169830322266	950.3016357421875	-197.5492553710938	311.8276977539062	1060.200317382812	-146.0700836181641	171.8263244628906	810.3807983398438	-321.8591918945312	180.2500152587891	880.4979248046875	-233.5687408447266	178.8674621582031	905.9759521484375	-296.9988403320312	588.7561645507812	1461.631713867188	-521.5792236328125	635.1551513671875	1399.73046875	-575.8900756835938	688.4402465820312	1126.993530273438	-618.5558471679688	685.1490478515625	1113.176879882812	-522.7137451171875	561.017333984375	907.13671875	-651.1243896484375	638.35205078125	898.3773803710938	-687.4627075195312	674.800537109375	1059.500244140625	-644.9027709960938	549.0599975585938	717.2223510742188	-673.0612182617188	533.8943481445312	792.280029296875	-697.0255737304688	604.2039794921875	792.90966796875	-716.2151489257812	517.5391845703125	1664.048950195312	-436.4495544433594	302.418212890625	1662.221557617188	-364.5446166992188	313.3130187988281	1661.116943359375	-464.2239379882812	457.8914794921875	1661.48876953125	-308.9048767089844	480.3354797363281	967.1608276367188	-188.8664245605469	629.2769775390625	992.1747436523438	-526.248291015625	526.6642456054688	1035.644897460938	-525.7855224609375	408.1168212890625	1012.24560546875	-271.3610534667969	473.442138671875	486.1653442382812	-293.7420043945312	461.0895385742188	628.299072265625	-252.9003295898438	624.6159057617188	30.13992500305176	-271.1649780273438	544.286865234375	263.1343383789062	-278.2405700683594	474.4552917480469	38.32950592041016	-435.2671813964844	554.501708984375	31.14919662475586	-432.3974304199219	507.0071105957031	33.22598266601562	-326.0956115722656	704.661376953125	36.52960586547852	-282.6039123535156	430.8027038574219	540.3143920898438	-597.7955322265625	528.2037353515625	791.6724243164062	-586.2094116210938	429.0369262695312	38.6065559387207	-644.4129638671875	399.7170104980469	424.9761352539062	-606.9205322265625	223.7390747070312	84.31195831298828	-649.1251831054688	264.5979919433594	69.51575469970703	-595.1233520507812	329.5137939453125	51.10506057739258	-691.8821411132812	475.6856384277344	30.22902488708496	-575.14794921875	
401	4	672.510498046875	1021.932922363281	-392.9046020507812	624.512939453125	1028.35498046875	-282.6824035644531	643.3992309570312	1117.203247070312	-319.8113098144531	401.8231811523438	1291.01904296875	-418.9888305664062	643.9447631835938	1244.279174804688	-322.4272766113281	570.201416015625	1501.560791015625	-349.0043029785156	422.3541870117188	1409.182495117188	-412.3966674804688	674.9646606445312	1367.414672851562	-386.3866577148438	549.197021484375	1466.032958984375	-237.3004302978516	446.1064147949219	1463.089111328125	-224.3471832275391	431.9234008789062	1350.021728515625	-140.8108215332031	367.7532348632812	1149.271362304688	-126.5222244262695	446.5553283691406	1112.642456054688	-131.1013488769531	252.4070892333984	977.5672607421875	-272.7058410644531	221.9850311279297	948.4368896484375	-198.5392761230469	309.5749206542969	1058.831787109375	-147.7207183837891	169.6351623535156	808.1673583984375	-322.4161376953125	178.2527313232422	878.3870849609375	-234.2366638183594	176.5228729248047	903.82275390625	-297.6878967285156	581.4277954101562	1460.51318359375	-525.9799194335938	627.2879638671875	1398.548706054688	-580.6358642578125	680.4057006835938	1125.838012695312	-623.5795288085938	677.9801025390625	1112.0595703125	-527.7029418945312	553.2587280273438	905.5066528320312	-654.7314453125	630.1732177734375	897.0751342773438	-691.8067626953125	666.656494140625	1058.303100585938	-649.719482421875	542.72607421875	715.3197021484375	-675.7068481445312	526.3970947265625	790.212158203125	-699.8610229492188	596.4496459960938	791.311279296875	-719.8638916015625	510.8885803222656	1663.183959960938	-440.1575317382812	296.5142517089844	1661.23095703125	-366.0360717773438	306.3839416503906	1660.12255859375	-465.8558044433594	452.5547180175781	1660.58837890625	-312.03857421875	476.6305541992188	966.7176513671875	-191.3138427734375	622.0513916015625	991.3319091796875	-530.318359375	519.3245239257812	1034.776977539062	-528.8605346679688	403.5513610839844	1011.5791015625	-273.212890625	471.1404113769531	485.462158203125	-294.4916381835938	458.2573852539062	627.7189331054688	-254.1005554199219	624.6504516601562	30.17714881896973	-271.2066040039062	543.168212890625	262.8119201660156	-278.6034545898438	474.3792114257812	38.23559951782227	-435.2683715820312	554.410400390625	31.1425609588623	-432.3429870605469	506.9247131347656	33.12750625610352	-325.9174194335938	704.6680297851562	36.66868591308594	-282.6039428710938	422.2788696289062	540.1358032226562	-600.5001831054688	520.442138671875	791.15673828125	-589.62890625	403.6268310546875	38.47093963623047	-652.0068969726562	387.8557739257812	425.5928039550781	-609.5944213867188	199.2991333007812	87.91246795654297	-646.2460327148438	242.6197357177734	72.49938201904297	-594.4081420898438	301.8904724121094	52.4110221862793	-694.1703491210938	453.3709716796875	29.00995826721191	-585.134521484375	
402	4.01	666.5972290039062	1021.056762695312	-397.6019287109375	619.7578125	1027.666748046875	-286.9088134765625	638.247314453125	1116.361938476562	-324.3141784667969	395.3067321777344	1289.919067382812	-421.4151306152344	638.8018188476562	1243.486328125	-327.1069030761719	564.5557250976562	1500.682006835938	-353.4117126464844	416.1327514648438	1408.064453125	-415.1885986328125	669.0209350585938	1366.495361328125	-391.6221923828125	544.6558227539062	1465.284912109375	-241.4654846191406	441.7041320800781	1462.222412109375	-227.4434661865234	428.5953674316406	1349.190551757812	-143.6163940429688	365.2662963867188	1148.118286132812	-128.7151184082031	444.273193359375	1111.907470703125	-133.7809753417969	250.1670989990234	975.39111328125	-273.741943359375	220.2241973876953	946.2694702148438	-199.3385009765625	307.5027770996094	1057.2919921875	-149.3337097167969	167.7919158935547	805.4922485351562	-322.6239624023438	176.5747680664062	875.9022216796875	-234.6292572021484	174.4424743652344	901.2418212890625	-298.1300048828125	574.0491333007812	1459.277954101562	-530.4259643554688	619.3722534179688	1397.248657226562	-585.4164428710938	672.2935791015625	1124.5498046875	-628.5845336914062	670.7329711914062	1110.822021484375	-532.689453125	545.3536987304688	903.7902221679688	-658.2725830078125	621.8469848632812	895.6421508789062	-696.0936889648438	658.4315795898438	1056.973999023438	-654.5189819335938	536.1429443359375	713.3258666992188	-678.2811279296875	518.718994140625	788.0650634765625	-702.6162719726562	588.488525390625	789.5938720703125	-723.4404907226562	504.172607421875	1662.248291015625	-443.9041442871094	290.5847473144531	1660.146606445312	-367.4883117675781	299.3945617675781	1659.038452148438	-467.4362487792969	447.2097473144531	1659.593505859375	-315.1927795410156	472.876220703125	966.1964721679688	-193.8303375244141	614.6768798828125	990.3814697265625	-534.4346923828125	511.7982177734375	1033.846557617188	-531.9674682617188	398.899169921875	1010.864379882812	-275.1080627441406	468.6783752441406	484.7118835449219	-295.3357849121094	455.2769165039062	627.083740234375	-255.3725280761719	624.703125	30.21936225891113	-271.261474609375	542.002685546875	262.4544067382812	-278.9971313476562	474.2906494140625	38.13568878173828	-435.2572021484375	554.3141479492188	31.15546035766602	-432.292236328125	506.8464660644531	33.01968765258789	-325.7237548828125	704.6722412109375	36.83296966552734	-282.6055603027344	413.5158386230469	539.91162109375	-603.1119995117188	512.4389038085938	790.5744018554688	-593.1119384765625	379.5841979980469	38.66176986694336	-658.821044921875	376.0981140136719	426.1588134765625	-612.0134887695312	176.7250366210938	91.42145538330078	-642.4961547851562	222.4583587646484	75.39305877685547	-592.9697265625	275.8226318359375	53.81480026245117	-695.5128784179688	432.407958984375	28.19414520263672	-594.559814453125	
403	4.02	660.5956420898438	1020.054809570312	-402.3786315917969	614.9410400390625	1026.866333007812	-291.2241821289062	633.0364990234375	1115.429321289062	-328.9029235839844	388.8038330078125	1288.75	-423.856689453125	633.5975952148438	1242.603149414062	-331.8714294433594	558.8856201171875	1499.733154296875	-357.8843994140625	409.8729553222656	1406.87646484375	-418.0046691894531	663.034912109375	1365.484497070312	-396.9197998046875	540.105712890625	1464.475830078125	-245.7064361572266	437.2995300292969	1461.298095703125	-230.5827484130859	425.3036193847656	1348.290283203125	-146.4750518798828	362.8736267089844	1146.8740234375	-130.9714813232422	442.1115112304688	1111.13330078125	-136.5560455322266	248.1848449707031	972.8868408203125	-274.6033935546875	218.7314758300781	943.8158569335938	-199.9485015869141	305.5973510742188	1055.595092773438	-150.9170684814453	166.3115692138672	802.362060546875	-322.4717407226562	175.22705078125	873.0601806640625	-234.7411956787109	172.6300201416016	898.2423095703125	-298.325439453125	566.620849609375	1457.931274414062	-534.91455078125	611.4078979492188	1395.833862304688	-590.2324829101562	664.098388671875	1123.132446289062	-633.5691528320312	663.40673828125	1109.4658203125	-537.6744384765625	537.3015747070312	901.995849609375	-661.7454223632812	613.376708984375	894.0826416015625	-700.319580078125	650.114501953125	1055.511474609375	-659.2938232421875	529.1689453125	711.2484741210938	-680.837890625	510.8517761230469	785.8470458984375	-705.2974853515625	580.3200073242188	787.7626342773438	-726.9442749023438	497.3938903808594	1661.246826171875	-447.6871032714844	284.6420593261719	1658.973510742188	-368.8980102539062	292.3487854003906	1657.871826171875	-468.9617614746094	441.8598327636719	1658.510009765625	-318.3646545410156	469.0824279785156	965.5906372070312	-196.4253387451172	607.1466064453125	989.3287963867188	-538.6100463867188	504.0713500976562	1032.857543945312	-535.1177368164062	394.1734008789062	1010.101379394531	-277.0477905273438	466.0450134277344	483.9090881347656	-296.2894897460938	452.1446228027344	626.3876953125	-256.7307739257812	624.7728881835938	30.26971435546875	-271.3307189941406	540.7774658203125	262.0645446777344	-279.4327392578125	474.1888427734375	38.02758026123047	-435.2332153320312	554.21142578125	31.18306922912598	-432.2470397949219	506.7758483886719	32.90571212768555	-325.5184020996094	704.68017578125	37.04121780395508	-282.6188659667969	404.48779296875	539.6520385742188	-605.61865234375	504.1542358398438	789.9227905273438	-596.638916015625	357.1401977539062	39.03067398071289	-664.8175048828125	364.4607238769531	426.6288452148438	-614.1884765625	156.1986389160156	94.76596832275391	-638.1202392578125	204.2277069091797	78.08106994628906	-591.0015258789062	251.6067810058594	55.25847625732422	-696.0279541015625	412.9566040039062	27.61350631713867	-603.3185424804688	
